<svg id="Capa_1" data-name="Capa 1" xmlns="http://www.w3.org/2000/svg" viewBox="0 0 200 200"><path d="M100,36.75c8.53.15,17.06.23,25.59.47,7.41.22,14.59,1.56,21,5.53a31.46,31.46,0,0,1,15,22.21,116,116,0,0,1,1.41,17.48c.19,12.5.12,25,0,37.51-.07,6.68-.29,13.38-2.54,19.8-4.28,12.22-12.9,19.6-25.48,22a102.34,102.34,0,0,1-17.33,1.42c-12.59.19-25.19.12-37.78,0-6.59-.08-13.2-.32-19.53-2.52-12.21-4.26-19.62-12.87-22-25.45a102.87,102.87,0,0,1-1.42-17.47c-.19-12.5-.12-25,0-37.51.07-6.68.29-13.38,2.54-19.8C43.78,48.15,52.41,40.78,65,38.4c5.67-1.07,11.54-1.2,17.33-1.42s11.81,0,17.72,0ZM152,100.16h-.24c0-5.4.13-10.8,0-16.19a132.94,132.94,0,0,0-1.12-16c-1.35-8.77-6.28-15-14.93-17.64a37.65,37.65,0,0,0-9.77-1.59q-17.35-.45-34.72-.41c-7.18,0-14.39.22-21.54.83-10.56.91-18,7.48-20,17.84a103.68,103.68,0,0,0-1.33,16.91c-.2,10.75-.17,21.5,0,32.25a110.69,110.69,0,0,0,1.11,16c1.53,9.47,7,15.67,16.51,18.13,5,1.3,10,1.32,15.1,1.41,8.67.15,17.34.24,26,.12,7.78-.1,15.58-.34,23.34-.86a21.93,21.93,0,0,0,12.32-4.78c5.87-4.66,8.12-11.09,8.48-18.22C151.64,118.69,151.73,109.42,152,100.16Z"/><path d="M100,67.62a32.46,32.46,0,1,1-32.51,33C67.31,82.36,82.14,67.44,100,67.62ZM100,79a21.05,21.05,0,1,0,21,21A21.15,21.15,0,0,0,100,79Z"/><path d="M133.8,58.76a7.46,7.46,0,0,1,7.5,7.7A7.61,7.61,0,0,1,133.7,74a7.71,7.71,0,0,1-7.62-7.69A7.59,7.59,0,0,1,133.8,58.76Z"/></svg>