<svg id="Capa_1" data-name="Capa 1" xmlns="http://www.w3.org/2000/svg" viewBox="0 0 764.29 73.98"><path d="M317.74,19.38,328,41.76s-1,2-9.64,0-11.18,0-11.18,0ZM339.3,66.22h10.08L321.59,5.87h-2.46L290.71,66.22h5l9.5-19.83s3.24-2.78,13.51-.13c8.94,2.3,10.91-.57,10.91-.57Zm-121.07,0h4.37v-48h.67l24.48,48h2L274,17.9h.34V66.22h9.95v-59H274.9L252.36,52.5h-.46L228.36,7.22H218.23ZM157,45.3a23.13,23.13,0,0,0,1.63,8.64,20.26,20.26,0,0,0,4.81,7.12,22.74,22.74,0,0,0,7.88,4.8,30.5,30.5,0,0,0,10.8,1.76,34.66,34.66,0,0,0,11.75-1.76,22,22,0,0,0,8-4.78,18.55,18.55,0,0,0,4.6-7A24.83,24.83,0,0,0,208,45.51V7.22h-4.37V45.51a19.66,19.66,0,0,1-1.27,7.1,17.26,17.26,0,0,1-3.64,5.82A16.91,16.91,0,0,1,193,62.37a20.78,20.78,0,0,1-15.2,0,17.15,17.15,0,0,1-9.51-9.76,19.26,19.26,0,0,1-1.3-7.1V7.22H157ZM117.91,10.41h7a13.43,13.43,0,0,1,5.16.94A12.59,12.59,0,0,1,134.3,14a12.34,12.34,0,0,1,2.81,4.13,13.65,13.65,0,0,1,1,6.57,16.32,16.32,0,0,1-.78,4.77A10.61,10.61,0,0,1,131,36a15,15,0,0,1-5.61.95,18.38,18.38,0,0,1-3.92-.42c-1.28-.28-2.47-.58-3.57-.89ZM108,66.22h9.92V38.91a18.56,18.56,0,0,0,2.13.38c.89.11,1.86.22,2.91.31s2.13.18,3.26.24,2.2.08,3.22.08a27,27,0,0,0,7.09-1,19.32,19.32,0,0,0,6.23-2.92,15.2,15.2,0,0,0,4.4-5,14.06,14.06,0,0,0,1.67-7,14.51,14.51,0,0,0-1.73-7.16,16.12,16.12,0,0,0-4.72-5.29,21.77,21.77,0,0,0-7-3.28,32.14,32.14,0,0,0-8.66-1.13H108ZM70.33,63a15.55,15.55,0,0,1-4.66-2.42A16.72,16.72,0,0,1,62,56.74a20.49,20.49,0,0,1-2.5-5.17l-5.33,2.2a24.62,24.62,0,0,0,3,5.85A17.62,17.62,0,0,0,61.56,64a19.3,19.3,0,0,0,5.91,2.71,28.35,28.35,0,0,0,7.58.93,28.85,28.85,0,0,0,9.21-1.33,19.71,19.71,0,0,0,6.63-3.64,15,15,0,0,0,4-5.38,16.38,16.38,0,0,0,1.34-6.59,11.11,11.11,0,0,0-1.44-5.61A19.08,19.08,0,0,0,91,40.43a33.4,33.4,0,0,0-5.34-3.9c-2-1.18-4-2.33-6.12-3.43l-6.12-3.24a40.86,40.86,0,0,1-5.34-3.32,18.34,18.34,0,0,1-3.77-3.67,6.93,6.93,0,0,1-1.44-4.25,8.08,8.08,0,0,1,.7-3.24,8.37,8.37,0,0,1,2.08-2.84,10.53,10.53,0,0,1,3.47-2A13.78,13.78,0,0,1,74,9.72a17.12,17.12,0,0,1,5.64.87,14.07,14.07,0,0,1,4.42,2.48,15.6,15.6,0,0,1,3.31,3.85,23.66,23.66,0,0,1,2.26,5l5.08-2.33a19.57,19.57,0,0,0-7-10.17Q82.89,5.87,74.5,5.87a25.62,25.62,0,0,0-8.24,1.21,17.82,17.82,0,0,0-6,3.32,14,14,0,0,0-3.72,5,15.44,15.44,0,0,0-1.27,6.29,12.46,12.46,0,0,0,1.39,6,18,18,0,0,0,3.67,4.7,30,30,0,0,0,5.19,3.82q2.92,1.71,6,3.28t5.95,3.11a34.08,34.08,0,0,1,5.19,3.33,16.61,16.61,0,0,1,3.66,3.87,8.49,8.49,0,0,1,1.4,4.81,7.58,7.58,0,0,1-1,4,9.41,9.41,0,0,1-2.69,2.9,12.15,12.15,0,0,1-3.81,1.78,16,16,0,0,1-4.34.59A17.6,17.6,0,0,1,70.33,63"/><path d="M16.28,62.05V37.66c1-.59,4.68-2.13,13.2.07,8.94,2.3,10.91-.57,10.91-.57V33.3h-.48c-1,.76-3.84,1.79-10.43.1-8.52-2.2-12.2-.66-13.2-.07V10.67H47.37V6.86h-41v59h41V62.05Z"/><rect x="41.88" y="30.71" width="0.47" height="0.83"/><path d="M658.23,10.91H667a13.76,13.76,0,0,1,5,.89,11.74,11.74,0,0,1,3.94,2.48,11.27,11.27,0,0,1,2.58,3.81,12.44,12.44,0,0,1,.93,4.85,11.3,11.3,0,0,1-4.4,9.17,15.71,15.71,0,0,1-4.89,2.52,20.53,20.53,0,0,1-6.17.89h-5.72Zm-9.91,55.31h9.91V38.48h6.95l1,0,20.5,27.76h10.5L675.68,37.59a24.39,24.39,0,0,0,5.89-2.18,18.71,18.71,0,0,0,4.58-3.34,14.16,14.16,0,0,0,2.94-4.32,12.88,12.88,0,0,0,1-5.15,13.91,13.91,0,0,0-1.36-6.16,13.43,13.43,0,0,0-4-4.87,19.63,19.63,0,0,0-6.67-3.2,34.23,34.23,0,0,0-9.34-1.15H648.32Zm-51.55-3.68a18.7,18.7,0,0,1-6.54-5.89,27.5,27.5,0,0,1-4-9,45.31,45.31,0,0,1-1.34-11.33,43.49,43.49,0,0,1,1.34-11.11,26.33,26.33,0,0,1,4-8.73,18.45,18.45,0,0,1,6.54-5.7,19.52,19.52,0,0,1,9.09-2,19.05,19.05,0,0,1,8.93,2,18.74,18.74,0,0,1,6.55,5.7,26.81,26.81,0,0,1,4,8.73,42.15,42.15,0,0,1,1.38,11.11,43.91,43.91,0,0,1-1.38,11.33,28,28,0,0,1-4,9,19,19,0,0,1-6.55,5.89,18.39,18.39,0,0,1-8.93,2.12,18.83,18.83,0,0,1-9.09-2.12m17.86,4a33.22,33.22,0,0,0,7.79-3.16A31.74,31.74,0,0,0,629,58.45a30,30,0,0,0,5-6.33,30.79,30.79,0,0,0,3.22-7.48,29.62,29.62,0,0,0,1.15-8.28,28.48,28.48,0,0,0-1.15-8.13A29.73,29.73,0,0,0,634,21a29.35,29.35,0,0,0-5-6.17A32.74,32.74,0,0,0,614.63,7a36.15,36.15,0,0,0-17.54,0A33,33,0,0,0,589.3,10a33.4,33.4,0,0,0-6.57,4.76,30,30,0,0,0-5,6.17,30.5,30.5,0,0,0-3.22,7.28,28.83,28.83,0,0,0-1.14,8.13,30.1,30.1,0,0,0,1.14,8.31,31.73,31.73,0,0,0,3.22,7.45,30.64,30.64,0,0,0,5,6.33,32.07,32.07,0,0,0,6.57,4.89,33.22,33.22,0,0,0,7.79,3.16,34.9,34.9,0,0,0,17.54,0M519.4,7.22V11h21.39V66.22h9.91V11H572V7.22ZM501,66.22h9.91v-59H501ZM444.74,10.41h10.58A24.88,24.88,0,0,1,465,12.26a22.63,22.63,0,0,1,7.63,5.12,23.07,23.07,0,0,1,5,7.84,33.71,33.71,0,0,1,1.78,11.14,36.68,36.68,0,0,1-1.88,12.17,23,23,0,0,1-5.17,8,21.75,21.75,0,0,1-7.69,4.9,26.55,26.55,0,0,1-9.4,1.65h-10.5Zm-9.92,55.81h22a41.93,41.93,0,0,0,14.59-2.35,31.12,31.12,0,0,0,10.72-6.43,27.44,27.44,0,0,0,6.6-9.56A30.18,30.18,0,0,0,491,36.19a28.83,28.83,0,0,0-2.52-12.09A28,28,0,0,0,481,14.34a26.92,26.92,0,0,0-10.91-5.42,63,63,0,0,0-15.65-1.7H434.82Z"/><path d="M727.34,19.4l10.27,22.38s-1,2-9.64,0-11.18,0-11.18,0ZM748.9,66.24H759L731.19,5.88h-2.46L700.31,66.24h5l9.5-19.83s3.25-2.78,13.51-.14c8.94,2.31,10.91-.56,10.91-.56Z"/><path d="M392.15,62.43V38c1-.59,4.68-2.13,13.21.07,8.93,2.3,10.9-.57,10.9-.57V33.67l-.48,0c-1,.76-3.84,1.79-10.42.1-8.53-2.2-12.2-.66-13.21-.07V11.05h31.09V7.24h-41v59h41V62.43Z"/></svg>